HIERARCHY
ROOT Hips
{
  OFFSET 13.6774 106.653 -34.4427
  CHANNELS 6 Xposition Yposition Zposition Zrotation Xrotation Yrotation
  JOINT ToSpine
  {
    OFFSET -2.69724 7.43032 -0.144315
    CHANNELS 3 Zrotation Xrotation Yrotation
    JOINT Spine
    {
      OFFSET -0.0310711 10.7595 1.96963
      CHANNELS 3 Zrotation Xrotation Yrotation
      JOINT Spine1
      {
        OFFSET 19.9056 3.91189 0.764692
        CHANNELS 3 Zrotation Xrotation Yrotation
        JOINT Neck
        {
          OFFSET 25.9749 7.03908 -0.130764
          CHANNELS 3 Zrotation Xrotation Yrotation
          JOINT Head
          {
            OFFSET 9.52751 0.295786 -0.907742
            CHANNELS 3 Zrotation Xrotation Yrotation
            End Site
            {
              OFFSET 16.4037 0.713936 2.7358
            }
          }
        }
        JOINT LeftShoulder
        {
          OFFSET 17.7449 4.33886 11.7777
          CHANNELS 3 Zrotation Xrotation Yrotation
          JOINT LeftArm
          {
            OFFSET 0.911315 1.27913 9.80584
            CHANNELS 3 Zrotation Xrotation Yrotation
            JOINT LeftForeArm
            {
              OFFSET 28.6126 1.18197 -3.53199
              CHANNELS 3 Zrotation Xrotation Yrotation
              JOINT LeftHand
              {
                OFFSET 27.5088 0.0218783 0.327423
                CHANNELS 3 Zrotation Xrotation Yrotation
                End Site
                {
                  OFFSET 18.6038 -0.000155887 0.382096
                }
              }
            }
          }
        }
        JOINT RightShoulder
        {
          OFFSET 17.1009 2.89543 -12.2328
          CHANNELS 3 Zrotation Xrotation Yrotation
          JOINT RightArm
          {
            OFFSET 1.4228 0.178766 -10.211
            CHANNELS 3 Zrotation Xrotation Yrotation
            JOINT RightForeArm
            {
              OFFSET 28.733 1.87905 2.64907
              CHANNELS 3 Zrotation Xrotation Yrotation
              JOINT RightHand
              {
                OFFSET 27.4588 0.290562 -0.101845
                CHANNELS 3 Zrotation Xrotation Yrotation
                End Site
                {
                  OFFSET 17.8396 -0.255518 -0.000602873
                }
              }
            }
          }
        }
      }
    }
  }
  JOINT LeftUpLeg
  {
    OFFSET -5.61296 -2.22332 -10.2353
    CHANNELS 3 Zrotation Xrotation Yrotation
    JOINT LeftLeg
    {
      OFFSET 2.56703 -44.7417 -7.93097
      CHANNELS 3 Zrotation Xrotation Yrotation
      JOINT LeftFoot
      {
        OFFSET 3.16933 -46.5642 -3.96578
        CHANNELS 3 Zrotation Xrotation Yrotation
        JOINT LeftToeBase
        {
          OFFSET 0.346054 -6.02161 12.8035
          CHANNELS 3 Zrotation Xrotation Yrotation
          End Site
          {
            OFFSET 0.134235 -1.35082 5.13018
          }
        }
      }
    }
  }
  JOINT RightUpLeg
  {
    OFFSET -5.7928 -1.72406 10.6446
    CHANNELS 3 Zrotation Xrotation Yrotation
    JOINT RightLeg
    {
      OFFSET -2.57161 -44.7178 -7.85259
      CHANNELS 3 Zrotation Xrotation Yrotation
      JOINT RightFoot
      {
        OFFSET -3.10148 -46.5936 -4.03391
        CHANNELS 3 Zrotation Xrotation Yrotation
        JOINT RightToeBase
        {
          OFFSET -0.0828122 -6.13587 12.8035
          CHANNELS 3 Zrotation Xrotation Yrotation
          End Site
          {
            OFFSET -0.131328 -1.35082 5.13018
          }
        }
      }
    }
  }
}
MOTION
Frames: 12
Frame Time: 0.03333333333333333
0.0000 93.1000 0.0000 -49.5389 -63.3688 -140.6597 -70.9431 -0.3732 87.7857 75.2515 72.3502 17.2214 2.2499 23.0416 -1.0931 -139.5941 19.7149 -175.4749 -153.4221 57.2722 -177.7985 -0.6223 -20.2193 -30.2928 -120.8864 20.0142 -96.8843 16.2498 6.3052 -68.9272 0.3834 -1.5093 1.5722 -2.3842 8.9077 35.6741 -51.2367 -26.1640 157.0320 13.0804 4.3938 105.9699 1.0605 -1.6741 0.5012 -27.1644 20.6841 104.2892 -3.8815 53.3134 -3.6085 -0.4616 -0.1896 1.3027 3.2353 -8.1914 0.2955 -61.2964 -9.1909 69.5220 -0.0004 41.6085 -9.8757 -18.1942 -4.1257 0.8005 5.0188 -31.3840 0.3442 
0.0000 93.1000 0.0000 -56.3689 -58.2266 -147.6361 -70.9094 -0.1909 87.8507 81.8276 71.4781 14.4381 3.6229 22.3092 -2.3385 -137.6016 19.2267 -175.8259 -148.5719 54.9316 178.7072 -2.0398 -20.3011 -31.1398 -123.7120 11.9324 -93.0366 14.3236 5.4976 -67.3326 0.4925 -0.0649 0.1587 -2.3809 8.5169 35.4874 -50.5095 -22.3330 154.7510 13.5175 3.9190 105.8369 0.2339 -0.2008 -0.1828 -27.8365 17.0003 93.5502 -4.9158 49.9263 -10.6980 -2.6939 -3.2516 0.1421 4.6982 -12.6081 1.5904 -58.7065 -9.0664 74.2702 1.3029 43.7166 1.3278 -13.9958 -7.2354 0.8359 2.2238 -32.2746 -14.0270 
0.0000 93.1000 0.0000 -62.2661 -52.0289 -153.6096 -70.9102 -0.2251 87.8501 79.8271 71.1064 15.3032 5.3670 21.9129 -2.8565 -136.1992 18.4249 -173.3253 -145.6975 53.3696 178.8999 -2.0214 -21.1155 -32.7737 -127.0416 6.5535 -89.6901 12.2867 5.1246 -64.0289 0.0456 -0.1880 0.2511 -2.1718 8.0207 33.5798 -49.7574 -20.9982 155.1674 10.9479 2.9712 105.0571 0.2317 -0.2842 -0.1129 -30.8768 16.3646 87.7173 -3.4068 47.8767 -11.1094 -4.1656 -3.8927 0.5883 4.2993 -11.0752 0.1938 -57.3667 -9.7140 76.5128 2.4257 42.8643 8.0825 -13.2454 -11.5424 0.5460 1.3960 -27.6605 -17.2670 
0.0000 93.1000 0.0000 -65.2845 -46.4261 -158.3016 -70.9388 -0.2668 87.8739 83.5345 71.1120 12.5961 5.3730 21.6834 -2.0230 -137.5901 17.8635 -170.1113 -145.5346 52.2011 178.9078 -1.7417 -21.1336 -34.8299 -128.9026 2.6805 -84.9176 11.0456 5.8095 -60.8861 0.1207 -0.4328 0.0764 -1.9076 7.4884 32.6671 -49.0538 -18.9902 155.2160 7.8376 1.6461 105.0994 0.6350 -0.3857 0.3782 -31.8457 17.5845 88.1031 -3.2591 50.1016 -5.0205 -2.3087 -4.0571 0.3285 4.3141 -9.0272 -2.9975 -55.6255 -9.4886 78.0868 0.5755 42.0853 -0.4269 -15.4188 -18.4223 0.9099 1.3483 -21.6479 0.2230 
0.0000 93.1000 0.0000 -67.6584 -43.5372 -161.4783 -70.9460 -0.2339 87.8661 84.8409 70.6234 8.5175 5.7251 20.5220 -0.7570 -136.9471 16.4467 -168.6501 -142.6256 50.1087 178.7888 -1.7419 -20.9059 -35.1958 -131.3291 0.6437 -82.7666 8.3840 5.1725 -59.0497 0.1860 -0.1963 -0.0891 -1.9803 6.9882 36.1228 -49.1871 -15.1099 152.5126 8.9856 1.7702 104.3644 0.3927 -0.2486 -0.0633 -30.8791 18.7783 90.1587 -3.3440 51.0400 -3.7874 -1.9145 -4.7162 -0.0192 3.9159 -9.7096 -1.7847 -51.4840 -9.4027 82.3019 0.7461 46.1893 -3.1039 -18.5632 -18.9573 1.2682 2.4588 -24.3407 0.2486 
0.0000 93.1000 0.0000 -69.8474 -42.1350 -165.6493 -70.9527 -0.1687 87.8515 90.6221 70.3021 2.3772 6.8006 20.3611 -1.6119 -135.7473 15.6936 -168.2232 -141.9491 48.8794 178.8384 -2.1644 -21.1238 -36.3665 -132.8245 -1.1163 -80.4347 8.2798 4.7725 -56.8421 0.0917 0.1959 -0.3227 -2.0701 7.2922 38.7762 -49.0847 -13.2757 149.3283 8.4098 1.8608 105.0390 -0.1848 0.1099 -0.2542 -32.0940 19.3816 93.1252 -3.7279 52.0685 -3.5341 -1.7148 -6.9383 -0.5539 3.0349 -6.7315 -1.3143 -50.2300 -10.5810 83.6141 1.9791 50.5297 -3.4752 -18.5756 -19.5992 1.2610 3.1895 -25.2156 -0.5664 
0.0000 93.1000 0.0000 -69.9077 -41.2343 -165.2162 -70.9539 -0.2123 87.8470 88.8474 70.1297 3.3626 7.7126 19.9533 -1.5788 -135.8609 15.3650 -168.5882 -140.0849 48.2105 177.7945 -2.0267 -21.5133 -38.2608 -133.2195 -1.9922 -79.3394 8.8393 5.6573 -54.9244 0.1735 -0.0104 -0.0682 -2.0943 7.3714 38.3852 -47.9010 -15.6694 148.5769 7.0244 2.1868 104.3864 0.0699 -0.1664 -0.0838 -32.5883 21.3534 95.3430 -4.8298 52.7954 -4.5374 -1.6160 -7.5469 -0.4903 3.3190 -7.7858 -1.4815 -50.7462 -10.8154 84.5289 1.9737 50.4774 -1.4726 -18.5579 -18.2292 0.8850 2.0275 -24.7727 -3.9741 
0.0000 93.1000 0.0000 -69.6507 -40.5721 -164.2273 -70.9650 -0.2314 87.8490 88.6808 69.8538 4.4019 8.5060 19.2702 -1.7957 -137.9835 15.3000 -164.6606 -142.2800 48.1246 177.6955 -1.9278 -21.0872 -38.0633 -134.0767 -2.2832 -79.2310 8.2976 5.9129 -53.8850 -0.1581 -0.0985 0.0300 -2.0331 8.0623 37.3918 -46.8819 -17.3298 148.5192 7.0453 1.8410 104.0830 0.3814 -0.2673 0.1518 -31.5125 23.2001 97.7162 -4.6716 53.0922 -6.5989 -0.9778 -7.3193 -0.5071 3.3349 -6.9981 -1.3615 -49.5901 -10.0635 85.5921 2.1837 51.4580 -0.4941 -18.8423 -18.7403 0.9839 1.9316 -24.1056 -3.6339 
0.0000 93.1000 0.0000 -70.9832 -41.3312 -165.7994 -70.9528 -0.2485 87.8355 92.6300 69.1211 -0.0575 7.4601 19.0788 -1.7779 -137.6924 14.8833 -164.5466 -141.6835 47.4192 176.4453 -1.8577 -20.9576 -38.1966 -132.8789 -2.2940 -79.1466 7.8163 5.4921 -52.7630 -0.1279 -0.1013 0.4678 -2.1372 8.1793 38.3822 -46.7899 -17.1476 148.5537 7.2765 1.1034 104.1303 0.2951 -0.3671 0.0638 -32.1945 23.0793 99.4261 -4.5675 53.8581 -6.6980 -0.7987 -7.0529 -0.6100 3.2647 -8.1262 -2.5141 -48.2756 -11.7907 86.4697 2.9920 53.1888 0.5788 -16.2661 -19.9082 0.7994 1.9371 -22.6439 -6.6285 
0.0000 93.1000 0.0000 -69.5238 -41.0347 -166.8787 -70.9591 -0.2171 87.8427 92.0180 69.1740 -0.6199 6.6854 19.1050 -1.2856 -137.8686 14.4122 -164.4384 -142.5659 47.4870 178.0399 -2.0456 -20.8732 -38.8149 -133.2771 -2.2211 -78.9385 8.2333 6.2523 -52.0161 -0.2042 0.0736 0.3528 -2.1338 8.1887 37.6500 -46.9832 -17.1905 148.3966 8.2239 1.9814 104.1905 0.1705 -0.2091 -0.0110 -32.5800 21.8143 99.5915 -5.2026 52.6904 -6.5103 -0.6295 -7.1934 -0.7735 2.9472 -7.4775 -1.5130 -48.4778 -12.2272 86.8246 3.3385 53.1708 1.5398 -15.9273 -18.7068 0.8396 2.0197 -22.9482 -8.6288 
0.0000 93.1000 0.0000 -69.5969 -40.1663 -167.4358 -70.9779 -0.2467 87.8797 92.7804 69.1214 1.1182 6.5667 19.7101 -2.0540 -137.6711 13.9929 -165.7282 -142.4297 47.4656 178.0708 -1.9511 -20.8354 -39.3595 -133.3149 -3.2387 -79.1259 9.8988 7.9298 -51.4261 0.0041 -0.1400 0.2276 -2.1183 8.1336 38.2342 -46.6686 -17.6739 148.5984 9.2421 2.1871 103.9780 0.1921 -0.4329 -0.0872 -32.3316 22.0302 100.6371 -4.8880 52.6089 -6.7249 0.1869 -7.3507 -0.7215 3.0402 -6.7744 -1.2335 -47.2110 -12.0465 87.5751 2.7731 53.5856 -0.2031 -15.9415 -18.6540 0.7858 1.9375 -24.0842 -5.7667 
0.0000 93.1000 0.0000 -69.8510 -40.2163 -167.0757 -70.9687 -0.2247 87.8760 92.7442 69.5630 -0.2422 6.6703 20.0900 -2.8864 -138.6992 14.2282 -164.2036 -144.1078 47.3230 178.4044 -2.0571 -21.0256 -39.3242 -132.2934 -2.4323 -79.9592 10.1739 7.7894 -51.1827 0.4704 -0.0311 0.1072 -2.1713 8.1633 38.2145 -48.1344 -18.2904 147.6700 8.9410 2.2405 104.2810 0.2279 -0.2918 0.2527 -32.3429 22.3535 101.6152 -4.8497 52.4227 -6.9462 -0.1649 -7.0558 -0.8489 3.1145 -7.2892 -2.4345 -46.4244 -12.4911 88.3755 2.6329 53.7917 -0.6044 -15.6772 -18.9577 0.9367 2.3258 -24.5647 -8.1314 
